<svg width="8" height="5" viewBox="0 0 8 5" fill="none" xmlns="http://www.w3.org/2000/svg">
<rect width="8" height="5" fill="#E5E5E5"/>
<g id="HOME PAGE">
<rect id="Background" x="-1326" y="-57" width="1920" height="700" fill="white"/>
<g id="Meun bar">
<g id="menu">
<g id="icon">
<path id="Vector" d="M1 1L4 4L7 1" stroke="black" stroke-linecap="round" stroke-linejoin="round"/>
</g>
<g id="Menu">
<g id="Home About Us Services Features Team Blog Contact">
<path d="M-307.21 -3.8H-305.6V6H-307.21V1.758H-311.41V6H-313.02V-3.8H-311.41V0.218H-307.21V-3.8ZM-300.435 6.182C-301.462 6.182 -302.334 5.82733 -303.053 5.118C-303.772 4.40867 -304.131 3.536 -304.131 2.5C-304.131 1.464 -303.772 0.591333 -303.053 -0.118C-302.334 -0.827333 -301.462 -1.182 -300.435 -1.182C-299.399 -1.182 -298.526 -0.827333 -297.817 -0.118C-297.098 0.591333 -296.739 1.464 -296.739 2.5C-296.739 3.536 -297.098 4.40867 -297.817 5.118C-298.526 5.82733 -299.399 6.182 -300.435 6.182ZM-301.989 4.082C-301.569 4.502 -301.051 4.712 -300.435 4.712C-299.819 4.712 -299.301 4.502 -298.881 4.082C-298.461 3.662 -298.251 3.13467 -298.251 2.5C-298.251 1.86533 -298.461 1.338 -298.881 0.918C-299.301 0.498 -299.819 0.288 -300.435 0.288C-301.051 0.288 -301.569 0.498 -301.989 0.918C-302.409 1.338 -302.619 1.86533 -302.619 2.5C-302.619 3.13467 -302.409 3.662 -301.989 4.082ZM-287.728 -1.182C-286.935 -1.182 -286.295 -0.925334 -285.81 -0.412C-285.325 0.101333 -285.082 0.792 -285.082 1.66V6H-286.594V1.758C-286.594 1.27267 -286.715 0.899333 -286.958 0.638C-287.201 0.367333 -287.532 0.232 -287.952 0.232C-288.419 0.232 -288.792 0.386 -289.072 0.694C-289.343 1.002 -289.478 1.464 -289.478 2.08V6H-290.99V1.758C-290.99 1.27267 -291.107 0.899333 -291.34 0.638C-291.564 0.367333 -291.886 0.232 -292.306 0.232C-292.763 0.232 -293.137 0.390666 -293.426 0.708C-293.715 1.016 -293.86 1.47333 -293.86 2.08V6H-295.372V-1H-293.86V-0.16C-293.412 -0.841334 -292.745 -1.182 -291.858 -1.182C-290.962 -1.182 -290.299 -0.813334 -289.87 -0.0760002C-289.403 -0.813334 -288.689 -1.182 -287.728 -1.182ZM-282.274 3.144C-282.162 3.676 -281.905 4.08667 -281.504 4.376C-281.102 4.656 -280.612 4.796 -280.034 4.796C-279.231 4.796 -278.629 4.50667 -278.228 3.928L-276.982 4.656C-277.672 5.67333 -278.694 6.182 -280.048 6.182C-281.186 6.182 -282.106 5.83667 -282.806 5.146C-283.506 4.446 -283.856 3.564 -283.856 2.5C-283.856 1.45467 -283.51 0.582 -282.82 -0.118C-282.129 -0.827333 -281.242 -1.182 -280.16 -1.182C-279.133 -1.182 -278.293 -0.822667 -277.64 -0.104C-276.977 0.614666 -276.646 1.48733 -276.646 2.514C-276.646 2.67267 -276.664 2.88267 -276.702 3.144H-282.274ZM-282.288 1.912H-278.172C-278.274 1.34267 -278.512 0.913333 -278.886 0.624C-279.25 0.334666 -279.679 0.19 -280.174 0.19C-280.734 0.19 -281.2 0.344 -281.574 0.652C-281.947 0.96 -282.185 1.38 -282.288 1.912Z" fill="#F25822"/>
<path d="M-233.693 6L-234.491 3.802H-238.901L-239.699 6H-241.085L-237.431 -3.8H-235.961L-232.307 6H-233.693ZM-238.453 2.584H-234.939L-236.703 -2.246L-238.453 2.584ZM-227.413 -1.182C-226.433 -1.182 -225.598 -0.822667 -224.907 -0.104C-224.217 0.605333 -223.871 1.47333 -223.871 2.5C-223.871 3.52667 -224.217 4.39933 -224.907 5.118C-225.598 5.82733 -226.433 6.182 -227.413 6.182C-228.571 6.182 -229.453 5.72 -230.059 4.796V6H-231.277V-3.8H-230.059V0.204C-229.453 -0.72 -228.571 -1.182 -227.413 -1.182ZM-227.567 5.006C-226.867 5.006 -226.279 4.768 -225.803 4.292C-225.327 3.80667 -225.089 3.20933 -225.089 2.5C-225.089 1.79067 -225.327 1.198 -225.803 0.722C-226.279 0.236666 -226.867 -0.00600028 -227.567 -0.00600028C-228.277 -0.00600028 -228.869 0.236666 -229.345 0.722C-229.821 1.198 -230.059 1.79067 -230.059 2.5C-230.059 3.20933 -229.821 3.80667 -229.345 4.292C-228.869 4.768 -228.277 5.006 -227.567 5.006ZM-216.51 5.118C-217.228 5.82733 -218.101 6.182 -219.128 6.182C-220.154 6.182 -221.027 5.82733 -221.746 5.118C-222.455 4.40867 -222.81 3.536 -222.81 2.5C-222.81 1.464 -222.455 0.591333 -221.746 -0.118C-221.027 -0.827333 -220.154 -1.182 -219.128 -1.182C-218.101 -1.182 -217.228 -0.827333 -216.51 -0.118C-215.791 0.591333 -215.432 1.464 -215.432 2.5C-215.432 3.536 -215.791 4.40867 -216.51 5.118ZM-219.128 4.992C-218.428 4.992 -217.84 4.754 -217.364 4.278C-216.888 3.802 -216.65 3.20933 -216.65 2.5C-216.65 1.79067 -216.888 1.198 -217.364 0.722C-217.84 0.246 -218.428 0.00799954 -219.128 0.00799954C-219.818 0.00799954 -220.402 0.246 -220.878 0.722C-221.354 1.198 -221.592 1.79067 -221.592 2.5C-221.592 3.20933 -221.354 3.802 -220.878 4.278C-220.402 4.754 -219.818 4.992 -219.128 4.992ZM-209.166 -1H-207.948V6H-209.166V4.992C-209.661 5.78533 -210.417 6.182 -211.434 6.182C-212.255 6.182 -212.913 5.92533 -213.408 5.412C-213.903 4.88933 -214.15 4.18467 -214.15 3.298V-1H-212.932V3.228C-212.932 3.79733 -212.778 4.24067 -212.47 4.558C-212.162 4.866 -211.737 5.02 -211.196 5.02C-210.589 5.02 -210.099 4.83333 -209.726 4.46C-209.353 4.07733 -209.166 3.494 -209.166 2.71V-1ZM-202.286 0.176H-204.148V3.97C-204.148 4.31533 -204.082 4.56267 -203.952 4.712C-203.812 4.852 -203.602 4.92667 -203.322 4.936C-203.042 4.936 -202.696 4.92667 -202.286 4.908V6C-203.35 6.14 -204.129 6.056 -204.624 5.748C-205.118 5.43067 -205.366 4.838 -205.366 3.97V0.176H-206.752V-1H-205.366V-2.596L-204.148 -2.96V-1H-202.286V0.176ZM-190.975 5.244C-191.656 5.86933 -192.538 6.182 -193.621 6.182C-194.703 6.182 -195.59 5.86933 -196.281 5.244C-196.962 4.60933 -197.303 3.76467 -197.303 2.71V-3.8H-196.001V2.654C-196.001 3.34467 -195.795 3.89533 -195.385 4.306C-194.974 4.70733 -194.386 4.908 -193.621 4.908C-192.855 4.908 -192.267 4.70733 -191.857 4.306C-191.446 3.89533 -191.241 3.34467 -191.241 2.654V-3.8H-189.953V2.71C-189.953 3.76467 -190.293 4.60933 -190.975 5.244ZM-187.106 0.89C-187.106 1.16067 -186.971 1.38 -186.7 1.548C-186.429 1.70667 -186.103 1.83733 -185.72 1.94C-185.337 2.03333 -184.955 2.14533 -184.572 2.276C-184.189 2.39733 -183.863 2.612 -183.592 2.92C-183.321 3.21867 -183.186 3.606 -183.186 4.082C-183.186 4.71667 -183.433 5.22533 -183.928 5.608C-184.413 5.99067 -185.039 6.182 -185.804 6.182C-186.485 6.182 -187.069 6.03267 -187.554 5.734C-188.039 5.43533 -188.385 5.03867 -188.59 4.544L-187.54 3.942C-187.428 4.278 -187.218 4.544 -186.91 4.74C-186.602 4.936 -186.233 5.034 -185.804 5.034C-185.403 5.034 -185.071 4.95933 -184.81 4.81C-184.549 4.65133 -184.418 4.40867 -184.418 4.082C-184.418 3.81133 -184.553 3.59667 -184.824 3.438C-185.095 3.27 -185.421 3.13933 -185.804 3.046C-186.187 2.94333 -186.569 2.82667 -186.952 2.696C-187.335 2.56533 -187.661 2.35067 -187.932 2.052C-188.203 1.75333 -188.338 1.37067 -188.338 0.904C-188.338 0.297333 -188.105 -0.202 -187.638 -0.594C-187.162 -0.986 -186.569 -1.182 -185.86 -1.182C-185.291 -1.182 -184.787 -1.05133 -184.348 -0.79C-183.9 -0.538 -183.564 -0.183334 -183.34 0.274L-184.362 0.848C-184.614 0.250666 -185.113 -0.0480002 -185.86 -0.0480002C-186.205 -0.0480002 -186.499 0.0359997 -186.742 0.204C-186.985 0.362666 -187.106 0.591333 -187.106 0.89ZM-143.454 6.182C-144.369 6.182 -145.153 5.96733 -145.806 5.538C-146.45 5.10867 -146.903 4.52067 -147.164 3.774L-146.044 3.13C-145.661 4.31533 -144.789 4.908 -143.426 4.908C-142.754 4.908 -142.241 4.77267 -141.886 4.502C-141.531 4.222 -141.354 3.85333 -141.354 3.396C-141.354 2.92933 -141.531 2.57933 -141.886 2.346C-142.241 2.11267 -142.833 1.86533 -143.664 1.604C-144.075 1.47333 -144.387 1.37067 -144.602 1.296C-144.817 1.212 -145.087 1.09067 -145.414 0.932C-145.731 0.764 -145.969 0.596 -146.128 0.428C-146.287 0.250666 -146.431 0.0219996 -146.562 -0.258C-146.683 -0.538 -146.744 -0.855334 -146.744 -1.21C-146.744 -2.05933 -146.445 -2.73133 -145.848 -3.226C-145.251 -3.73 -144.523 -3.982 -143.664 -3.982C-142.889 -3.982 -142.217 -3.786 -141.648 -3.394C-141.069 -3.002 -140.635 -2.484 -140.346 -1.84L-141.438 -1.21C-141.858 -2.218 -142.6 -2.722 -143.664 -2.722C-144.196 -2.722 -144.625 -2.59133 -144.952 -2.33C-145.279 -2.06867 -145.442 -1.714 -145.442 -1.266C-145.442 -0.836667 -145.288 -0.51 -144.98 -0.286C-144.672 -0.0620003 -144.14 0.171333 -143.384 0.414C-143.113 0.498 -142.922 0.558666 -142.81 0.596C-142.698 0.633333 -142.525 0.698666 -142.292 0.792C-142.049 0.885333 -141.872 0.96 -141.76 1.016C-141.648 1.072 -141.499 1.15133 -141.312 1.254C-141.116 1.35667 -140.971 1.45467 -140.878 1.548C-140.785 1.64133 -140.677 1.758 -140.556 1.898C-140.425 2.02867 -140.332 2.164 -140.276 2.304C-140.22 2.444 -140.173 2.60733 -140.136 2.794C-140.089 2.97133 -140.066 3.16267 -140.066 3.368C-140.066 4.22667 -140.379 4.91267 -141.004 5.426C-141.629 5.93 -142.446 6.182 -143.454 6.182ZM-137.632 3.06C-137.511 3.68533 -137.226 4.17067 -136.778 4.516C-136.321 4.86133 -135.761 5.034 -135.098 5.034C-134.174 5.034 -133.502 4.69333 -133.082 4.012L-132.046 4.6C-132.727 5.65467 -133.754 6.182 -135.126 6.182C-136.237 6.182 -137.142 5.83667 -137.842 5.146C-138.533 4.446 -138.878 3.564 -138.878 2.5C-138.878 1.44533 -138.537 0.568 -137.856 -0.132C-137.175 -0.832 -136.293 -1.182 -135.21 -1.182C-134.183 -1.182 -133.348 -0.818 -132.704 -0.0900005C-132.051 0.628666 -131.724 1.49667 -131.724 2.514C-131.724 2.69133 -131.738 2.87333 -131.766 3.06H-137.632ZM-135.21 -0.0340003C-135.863 -0.0340003 -136.405 0.152666 -136.834 0.526C-137.263 0.89 -137.529 1.38 -137.632 1.996H-132.956C-133.059 1.33333 -133.32 0.829333 -133.74 0.484C-134.16 0.138666 -134.65 -0.0340003 -135.21 -0.0340003ZM-129.106 0.176C-128.705 -0.692 -127.977 -1.126 -126.922 -1.126V0.148C-127.519 0.12 -128.033 0.278666 -128.462 0.624C-128.891 0.969333 -129.106 1.52467 -129.106 2.29V6H-130.324V-1H-129.106V0.176ZM-120.83 -1H-119.514L-122.314 6H-123.742L-126.542 -1H-125.226L-123.028 4.698L-120.83 -1ZM-117.868 -2.274C-118.102 -2.274 -118.298 -2.35333 -118.456 -2.512C-118.615 -2.67067 -118.694 -2.862 -118.694 -3.086C-118.694 -3.31 -118.615 -3.50133 -118.456 -3.66C-118.298 -3.828 -118.102 -3.912 -117.868 -3.912C-117.644 -3.912 -117.453 -3.828 -117.294 -3.66C-117.136 -3.50133 -117.056 -3.31 -117.056 -3.086C-117.056 -2.862 -117.136 -2.67067 -117.294 -2.512C-117.453 -2.35333 -117.644 -2.274 -117.868 -2.274ZM-118.484 6V-1H-117.266V6H-118.484ZM-112.118 6.182C-113.173 6.182 -114.05 5.832 -114.75 5.132C-115.45 4.42267 -115.8 3.54533 -115.8 2.5C-115.8 1.45467 -115.45 0.582 -114.75 -0.118C-114.05 -0.827333 -113.173 -1.182 -112.118 -1.182C-111.427 -1.182 -110.807 -1.014 -110.256 -0.678C-109.705 -0.351334 -109.295 0.0919996 -109.024 0.652L-110.046 1.24C-110.223 0.866666 -110.499 0.568 -110.872 0.344C-111.236 0.12 -111.651 0.00799954 -112.118 0.00799954C-112.818 0.00799954 -113.406 0.246 -113.882 0.722C-114.349 1.198 -114.582 1.79067 -114.582 2.5C-114.582 3.2 -114.349 3.788 -113.882 4.264C-113.406 4.74 -112.818 4.978 -112.118 4.978C-111.651 4.978 -111.231 4.87067 -110.858 4.656C-110.485 4.432 -110.2 4.13333 -110.004 3.76L-108.968 4.362C-109.267 4.91267 -109.696 5.356 -110.256 5.692C-110.816 6.01867 -111.437 6.182 -112.118 6.182ZM-107.007 3.06C-106.886 3.68533 -106.601 4.17067 -106.153 4.516C-105.696 4.86133 -105.136 5.034 -104.473 5.034C-103.549 5.034 -102.877 4.69333 -102.457 4.012L-101.421 4.6C-102.102 5.65467 -103.129 6.182 -104.501 6.182C-105.612 6.182 -106.517 5.83667 -107.217 5.146C-107.908 4.446 -108.253 3.564 -108.253 2.5C-108.253 1.44533 -107.912 0.568 -107.231 -0.132C-106.55 -0.832 -105.668 -1.182 -104.585 -1.182C-103.558 -1.182 -102.723 -0.818 -102.079 -0.0900005C-101.426 0.628666 -101.099 1.49667 -101.099 2.514C-101.099 2.69133 -101.113 2.87333 -101.141 3.06H-107.007ZM-104.585 -0.0340003C-105.238 -0.0340003 -105.78 0.152666 -106.209 0.526C-106.638 0.89 -106.904 1.38 -107.007 1.996H-102.331C-102.434 1.33333 -102.695 0.829333 -103.115 0.484C-103.535 0.138666 -104.025 -0.0340003 -104.585 -0.0340003ZM-98.9225 0.89C-98.9225 1.16067 -98.7872 1.38 -98.5165 1.548C-98.2458 1.70667 -97.9192 1.83733 -97.5365 1.94C-97.1538 2.03333 -96.7712 2.14533 -96.3885 2.276C-96.0058 2.39733 -95.6792 2.612 -95.4085 2.92C-95.1378 3.21867 -95.0025 3.606 -95.0025 4.082C-95.0025 4.71667 -95.2498 5.22533 -95.7445 5.608C-96.2298 5.99067 -96.8552 6.182 -97.6205 6.182C-98.3018 6.182 -98.8852 6.03267 -99.3705 5.734C-99.8558 5.43533 -100.201 5.03867 -100.406 4.544L-99.3565 3.942C-99.2445 4.278 -99.0345 4.544 -98.7265 4.74C-98.4185 4.936 -98.0498 5.034 -97.6205 5.034C-97.2192 5.034 -96.8878 4.95933 -96.6265 4.81C-96.3652 4.65133 -96.2345 4.40867 -96.2345 4.082C-96.2345 3.81133 -96.3698 3.59667 -96.6405 3.438C-96.9112 3.27 -97.2378 3.13933 -97.6205 3.046C-98.0032 2.94333 -98.3858 2.82667 -98.7685 2.696C-99.1512 2.56533 -99.4778 2.35067 -99.7485 2.052C-100.019 1.75333 -100.154 1.37067 -100.154 0.904C-100.154 0.297333 -99.9212 -0.202 -99.4545 -0.594C-98.9785 -0.986 -98.3858 -1.182 -97.6765 -1.182C-97.1072 -1.182 -96.6032 -1.05133 -96.1645 -0.79C-95.7165 -0.538 -95.3805 -0.183334 -95.1565 0.274L-96.1785 0.848C-96.4305 0.250666 -96.9298 -0.0480002 -97.6765 -0.0480002C-98.0218 -0.0480002 -98.3158 0.0359997 -98.5585 0.204C-98.8012 0.362666 -98.9225 0.591333 -98.9225 0.89ZM-52.7924 -2.568H-57.1324V0.61H-52.9744V1.842H-57.1324V6H-58.4344V-3.8H-52.7924V-2.568ZM-50.4876 3.06C-50.3663 3.68533 -50.0816 4.17067 -49.6336 4.516C-49.1763 4.86133 -48.6163 5.034 -47.9536 5.034C-47.0296 5.034 -46.3576 4.69333 -45.9376 4.012L-44.9016 4.6C-45.583 5.65467 -46.6096 6.182 -47.9816 6.182C-49.0923 6.182 -49.9976 5.83667 -50.6976 5.146C-51.3883 4.446 -51.7336 3.564 -51.7336 2.5C-51.7336 1.44533 -51.393 0.568 -50.7116 -0.132C-50.0303 -0.832 -49.1483 -1.182 -48.0656 -1.182C-47.039 -1.182 -46.2036 -0.818 -45.5596 -0.0900005C-44.9063 0.628666 -44.5796 1.49667 -44.5796 2.514C-44.5796 2.69133 -44.5936 2.87333 -44.6216 3.06H-50.4876ZM-48.0656 -0.0340003C-48.719 -0.0340003 -49.2603 0.152666 -49.6896 0.526C-50.119 0.89 -50.385 1.38 -50.4876 1.996H-45.8116C-45.9143 1.33333 -46.1756 0.829333 -46.5956 0.484C-47.0156 0.138666 -47.5056 -0.0340003 -48.0656 -0.0340003ZM-37.3972 -1H-36.1792V6H-37.3972V4.796C-38.0039 5.72 -38.8859 6.182 -40.0432 6.182C-41.0232 6.182 -41.8585 5.82733 -42.5492 5.118C-43.2399 4.39933 -43.5852 3.52667 -43.5852 2.5C-43.5852 1.47333 -43.2399 0.605333 -42.5492 -0.104C-41.8585 -0.822667 -41.0232 -1.182 -40.0432 -1.182C-38.8859 -1.182 -38.0039 -0.72 -37.3972 0.204V-1ZM-39.8892 5.006C-39.1799 5.006 -38.5872 4.768 -38.1112 4.292C-37.6352 3.80667 -37.3972 3.20933 -37.3972 2.5C-37.3972 1.79067 -37.6352 1.198 -38.1112 0.722C-38.5872 0.236666 -39.1799 -0.00600028 -39.8892 -0.00600028C-40.5892 -0.00600028 -41.1772 0.236666 -41.6532 0.722C-42.1292 1.198 -42.3672 1.79067 -42.3672 2.5C-42.3672 3.20933 -42.1292 3.80667 -41.6532 4.292C-41.1772 4.768 -40.5892 5.006 -39.8892 5.006ZM-30.5258 0.176H-32.3878V3.97C-32.3878 4.31533 -32.3225 4.56267 -32.1918 4.712C-32.0518 4.852 -31.8418 4.92667 -31.5618 4.936C-31.2818 4.936 -30.9365 4.92667 -30.5258 4.908V6C-31.5898 6.14 -32.3691 6.056 -32.8638 5.748C-33.3585 5.43067 -33.6058 4.838 -33.6058 3.97V0.176H-34.9918V-1H-33.6058V-2.596L-32.3878 -2.96V-1H-30.5258V0.176ZM-24.2128 -1H-22.9948V6H-24.2128V4.992C-24.7075 5.78533 -25.4635 6.182 -26.4808 6.182C-27.3021 6.182 -27.9601 5.92533 -28.4548 5.412C-28.9495 4.88933 -29.1968 4.18467 -29.1968 3.298V-1H-27.9788V3.228C-27.9788 3.79733 -27.8248 4.24067 -27.5168 4.558C-27.2088 4.866 -26.7841 5.02 -26.2428 5.02C-25.6361 5.02 -25.1461 4.83333 -24.7728 4.46C-24.3995 4.07733 -24.2128 3.494 -24.2128 2.71V-1ZM-19.9225 0.176C-19.5211 -0.692 -18.7931 -1.126 -17.7385 -1.126V0.148C-18.3358 0.12 -18.8491 0.278666 -19.2785 0.624C-19.7078 0.969333 -19.9225 1.52467 -19.9225 2.29V6H-21.1405V-1H-19.9225V0.176ZM-16.0755 3.06C-15.9542 3.68533 -15.6695 4.17067 -15.2215 4.516C-14.7642 4.86133 -14.2042 5.034 -13.5415 5.034C-12.6175 5.034 -11.9455 4.69333 -11.5255 4.012L-10.4895 4.6C-11.1708 5.65467 -12.1975 6.182 -13.5695 6.182C-14.6802 6.182 -15.5855 5.83667 -16.2855 5.146C-16.9762 4.446 -17.3215 3.564 -17.3215 2.5C-17.3215 1.44533 -16.9808 0.568 -16.2995 -0.132C-15.6182 -0.832 -14.7362 -1.182 -13.6535 -1.182C-12.6268 -1.182 -11.7915 -0.818 -11.1475 -0.0900005C-10.4942 0.628666 -10.1675 1.49667 -10.1675 2.514C-10.1675 2.69133 -10.1815 2.87333 -10.2095 3.06H-16.0755ZM-13.6535 -0.0340003C-14.3068 -0.0340003 -14.8482 0.152666 -15.2775 0.526C-15.7068 0.89 -15.9728 1.38 -16.0755 1.996H-11.3995C-11.5022 1.33333 -11.7635 0.829333 -12.1835 0.484C-12.6035 0.138666 -13.0935 -0.0340003 -13.6535 -0.0340003ZM-7.99084 0.89C-7.99084 1.16067 -7.85551 1.38 -7.58484 1.548C-7.31418 1.70667 -6.98751 1.83733 -6.60484 1.94C-6.22218 2.03333 -5.83951 2.14533 -5.45684 2.276C-5.07418 2.39733 -4.74751 2.612 -4.47684 2.92C-4.20618 3.21867 -4.07084 3.606 -4.07084 4.082C-4.07084 4.71667 -4.31818 5.22533 -4.81284 5.608C-5.29818 5.99067 -5.92351 6.182 -6.68884 6.182C-7.37018 6.182 -7.95351 6.03267 -8.43884 5.734C-8.92418 5.43533 -9.26951 5.03867 -9.47484 4.544L-8.42484 3.942C-8.31284 4.278 -8.10284 4.544 -7.79484 4.74C-7.48684 4.936 -7.11818 5.034 -6.68884 5.034C-6.28751 5.034 -5.95618 4.95933 -5.69484 4.81C-5.43351 4.65133 -5.30284 4.40867 -5.30284 4.082C-5.30284 3.81133 -5.43818 3.59667 -5.70884 3.438C-5.97951 3.27 -6.30618 3.13933 -6.68884 3.046C-7.07151 2.94333 -7.45418 2.82667 -7.83684 2.696C-8.21951 2.56533 -8.54618 2.35067 -8.81684 2.052C-9.08751 1.75333 -9.22284 1.37067 -9.22284 0.904C-9.22284 0.297333 -8.98951 -0.202 -8.52284 -0.594C-8.04684 -0.986 -7.45418 -1.182 -6.74484 -1.182C-6.17551 -1.182 -5.67151 -1.05133 -5.23284 -0.79C-4.78484 -0.538 -4.44884 -0.183334 -4.22484 0.274L-5.24684 0.848C-5.49884 0.250666 -5.99818 -0.0480002 -6.74484 -0.0480002C-7.09018 -0.0480002 -7.38418 0.0359997 -7.62684 0.204C-7.86951 0.362666 -7.99084 0.591333 -7.99084 0.89ZM38.7693 -3.8V-2.568H35.8713V6H34.5833V-2.568H31.6993V-3.8H38.7693ZM39.5143 3.06C39.6357 3.68533 39.9203 4.17067 40.3683 4.516C40.8257 4.86133 41.3857 5.034 42.0483 5.034C42.9723 5.034 43.6443 4.69333 44.0643 4.012L45.1003 4.6C44.419 5.65467 43.3923 6.182 42.0203 6.182C40.9097 6.182 40.0043 5.83667 39.3043 5.146C38.6137 4.446 38.2683 3.564 38.2683 2.5C38.2683 1.44533 38.609 0.568 39.2903 -0.132C39.9717 -0.832 40.8537 -1.182 41.9363 -1.182C42.963 -1.182 43.7983 -0.818 44.4423 -0.0900005C45.0957 0.628666 45.4223 1.49667 45.4223 2.514C45.4223 2.69133 45.4083 2.87333 45.3803 3.06H39.5143ZM41.9363 -0.0340003C41.283 -0.0340003 40.7417 0.152666 40.3123 0.526C39.883 0.89 39.617 1.38 39.5143 1.996H44.1903C44.0877 1.33333 43.8263 0.829333 43.4063 0.484C42.9863 0.138666 42.4963 -0.0340003 41.9363 -0.0340003ZM52.6048 -1H53.8228V6H52.6048V4.796C51.9981 5.72 51.1161 6.182 49.9588 6.182C48.9788 6.182 48.1434 5.82733 47.4528 5.118C46.7621 4.39933 46.4168 3.52667 46.4168 2.5C46.4168 1.47333 46.7621 0.605333 47.4528 -0.104C48.1434 -0.822667 48.9788 -1.182 49.9588 -1.182C51.1161 -1.182 51.9981 -0.72 52.6048 0.204V-1ZM50.1128 5.006C50.8221 5.006 51.4148 4.768 51.8908 4.292C52.3668 3.80667 52.6048 3.20933 52.6048 2.5C52.6048 1.79067 52.3668 1.198 51.8908 0.722C51.4148 0.236666 50.8221 -0.00600028 50.1128 -0.00600028C49.4128 -0.00600028 48.8248 0.236666 48.3488 0.722C47.8728 1.198 47.6348 1.79067 47.6348 2.5C47.6348 3.20933 47.8728 3.80667 48.3488 4.292C48.8248 4.768 49.4128 5.006 50.1128 5.006ZM63.2281 -1.182C64.0121 -1.182 64.6468 -0.925334 65.1321 -0.412C65.6175 0.0919997 65.8601 0.778 65.8601 1.646V6H64.6421V1.688C64.6421 1.14667 64.5021 0.726666 64.2221 0.428C63.9421 0.129333 63.5688 -0.0200001 63.1021 -0.0200001C62.5795 -0.0200001 62.1595 0.157333 61.8421 0.512C61.5341 0.857333 61.3801 1.38933 61.3801 2.108V6H60.1621V1.688C60.1621 1.14667 60.0268 0.726666 59.7561 0.428C59.4948 0.129333 59.1355 -0.0200001 58.6781 -0.0200001C58.1648 -0.0200001 57.7355 0.157333 57.3901 0.512C57.0541 0.866667 56.8861 1.39867 56.8861 2.108V6H55.6681V-1H56.8861V-0.0620004C57.3621 -0.808667 58.0575 -1.182 58.9721 -1.182C59.9148 -1.182 60.6008 -0.785334 61.0301 0.00799954C61.5155 -0.785334 62.2481 -1.182 63.2281 -1.182ZM108.275 0.918C108.723 1.13267 109.078 1.44067 109.339 1.842C109.61 2.24333 109.745 2.70533 109.745 3.228C109.745 4.012 109.47 4.67 108.919 5.202C108.368 5.734 107.696 6 106.903 6H102.675V-3.8H106.595C107.36 -3.8 108.009 -3.54333 108.541 -3.03C109.073 -2.51667 109.339 -1.882 109.339 -1.126C109.339 -0.258 108.984 0.423333 108.275 0.918ZM106.595 -2.582H103.977V0.414H106.595C107.006 0.414 107.351 0.269333 107.631 -0.0200001C107.911 -0.309334 108.051 -0.664 108.051 -1.084C108.051 -1.49467 107.906 -1.84467 107.617 -2.134C107.337 -2.43267 106.996 -2.582 106.595 -2.582ZM106.903 4.782C107.342 4.782 107.71 4.628 108.009 4.32C108.308 4.012 108.457 3.634 108.457 3.186C108.457 2.74733 108.303 2.374 107.995 2.066C107.696 1.758 107.332 1.604 106.903 1.604H103.977V4.782H106.903ZM111.162 6V-4.22H112.38V6H111.162ZM120.146 5.118C119.428 5.82733 118.555 6.182 117.528 6.182C116.502 6.182 115.629 5.82733 114.91 5.118C114.201 4.40867 113.846 3.536 113.846 2.5C113.846 1.464 114.201 0.591333 114.91 -0.118C115.629 -0.827333 116.502 -1.182 117.528 -1.182C118.555 -1.182 119.428 -0.827333 120.146 -0.118C120.865 0.591333 121.224 1.464 121.224 2.5C121.224 3.536 120.865 4.40867 120.146 5.118ZM117.528 4.992C118.228 4.992 118.816 4.754 119.292 4.278C119.768 3.802 120.006 3.20933 120.006 2.5C120.006 1.79067 119.768 1.198 119.292 0.722C118.816 0.246 118.228 0.00799954 117.528 0.00799954C116.838 0.00799954 116.254 0.246 115.778 0.722C115.302 1.198 115.064 1.79067 115.064 2.5C115.064 3.20933 115.302 3.802 115.778 4.278C116.254 4.754 116.838 4.992 117.528 4.992ZM128.47 -1H129.674V5.706C129.674 6.742 129.324 7.54467 128.624 8.114C127.924 8.69267 127.084 8.982 126.104 8.982C125.32 8.982 124.644 8.83267 124.074 8.534C123.505 8.24467 123.076 7.82467 122.786 7.274L123.85 6.672C124.233 7.456 124.994 7.848 126.132 7.848C126.86 7.848 127.43 7.65667 127.84 7.274C128.26 6.89133 128.47 6.36867 128.47 5.706V4.712C127.854 5.64533 126.977 6.112 125.838 6.112C124.84 6.112 123.995 5.75733 123.304 5.048C122.614 4.33867 122.268 3.47533 122.268 2.458C122.268 1.44067 122.614 0.582 123.304 -0.118C123.995 -0.827333 124.84 -1.182 125.838 -1.182C126.986 -1.182 127.864 -0.72 128.47 0.204V-1ZM124.2 4.236C124.676 4.712 125.269 4.95 125.978 4.95C126.688 4.95 127.28 4.712 127.756 4.236C128.232 3.76 128.47 3.16733 128.47 2.458C128.47 1.758 128.232 1.17 127.756 0.694C127.28 0.218 126.688 -0.0200001 125.978 -0.0200001C125.269 -0.0200001 124.676 0.218 124.2 0.694C123.724 1.17 123.486 1.758 123.486 2.458C123.486 3.16733 123.724 3.76 124.2 4.236ZM171.252 6.182C169.768 6.182 168.54 5.692 167.57 4.712C166.608 3.732 166.128 2.528 166.128 1.1C166.128 -0.328 166.608 -1.532 167.57 -2.512C168.54 -3.492 169.768 -3.982 171.252 -3.982C172.148 -3.982 172.969 -3.76733 173.716 -3.338C174.472 -2.90867 175.06 -2.33 175.48 -1.602L174.346 -0.944C174.066 -1.48533 173.646 -1.91467 173.086 -2.232C172.535 -2.55867 171.924 -2.722 171.252 -2.722C170.122 -2.722 169.198 -2.358 168.48 -1.63C167.77 -0.902 167.416 0.00799982 167.416 1.1C167.416 2.18267 167.77 3.088 168.48 3.816C169.198 4.544 170.122 4.908 171.252 4.908C171.924 4.908 172.535 4.74933 173.086 4.432C173.646 4.10533 174.066 3.676 174.346 3.144L175.48 3.788C175.069 4.516 174.486 5.09933 173.73 5.538C172.974 5.96733 172.148 6.182 171.252 6.182ZM182.709 5.118C181.99 5.82733 181.118 6.182 180.091 6.182C179.064 6.182 178.192 5.82733 177.473 5.118C176.764 4.40867 176.409 3.536 176.409 2.5C176.409 1.464 176.764 0.591333 177.473 -0.118C178.192 -0.827333 179.064 -1.182 180.091 -1.182C181.118 -1.182 181.99 -0.827333 182.709 -0.118C183.428 0.591333 183.787 1.464 183.787 2.5C183.787 3.536 183.428 4.40867 182.709 5.118ZM180.091 4.992C180.791 4.992 181.379 4.754 181.855 4.278C182.331 3.802 182.569 3.20933 182.569 2.5C182.569 1.79067 182.331 1.198 181.855 0.722C181.379 0.246 180.791 0.00799954 180.091 0.00799954C179.4 0.00799954 178.817 0.246 178.341 0.722C177.865 1.198 177.627 1.79067 177.627 2.5C177.627 3.20933 177.865 3.802 178.341 4.278C178.817 4.754 179.4 4.992 180.091 4.992ZM188.709 -1.182C189.53 -1.182 190.188 -0.920667 190.683 -0.398C191.177 0.115333 191.425 0.815333 191.425 1.702V6H190.207V1.772C190.207 1.20267 190.053 0.764 189.745 0.456C189.437 0.138666 189.012 -0.0200001 188.471 -0.0200001C187.864 -0.0200001 187.374 0.171333 187.001 0.554C186.627 0.927333 186.441 1.506 186.441 2.29V6H185.223V-1H186.441V0.00799954C186.935 -0.785334 187.691 -1.182 188.709 -1.182ZM196.933 0.176H195.071V3.97C195.071 4.31533 195.137 4.56267 195.267 4.712C195.407 4.852 195.617 4.92667 195.897 4.936C196.177 4.936 196.523 4.92667 196.933 4.908V6C195.869 6.14 195.09 6.056 194.595 5.748C194.101 5.43067 193.853 4.838 193.853 3.97V0.176H192.467V-1H193.853V-2.596L195.071 -2.96V-1H196.933V0.176ZM203.816 -1H205.034V6H203.816V4.796C203.209 5.72 202.327 6.182 201.17 6.182C200.19 6.182 199.354 5.82733 198.664 5.118C197.973 4.39933 197.628 3.52667 197.628 2.5C197.628 1.47333 197.973 0.605333 198.664 -0.104C199.354 -0.822667 200.19 -1.182 201.17 -1.182C202.327 -1.182 203.209 -0.72 203.816 0.204V-1ZM201.324 5.006C202.033 5.006 202.626 4.768 203.102 4.292C203.578 3.80667 203.816 3.20933 203.816 2.5C203.816 1.79067 203.578 1.198 203.102 0.722C202.626 0.236666 202.033 -0.00600028 201.324 -0.00600028C200.624 -0.00600028 200.036 0.236666 199.56 0.722C199.084 1.198 198.846 1.79067 198.846 2.5C198.846 3.20933 199.084 3.80667 199.56 4.292C200.036 4.768 200.624 5.006 201.324 5.006ZM210.169 6.182C209.114 6.182 208.237 5.832 207.537 5.132C206.837 4.42267 206.487 3.54533 206.487 2.5C206.487 1.45467 206.837 0.582 207.537 -0.118C208.237 -0.827333 209.114 -1.182 210.169 -1.182C210.86 -1.182 211.48 -1.014 212.031 -0.678C212.582 -0.351334 212.992 0.0919996 213.263 0.652L212.241 1.24C212.064 0.866666 211.788 0.568 211.415 0.344C211.051 0.12 210.636 0.00799954 210.169 0.00799954C209.469 0.00799954 208.881 0.246 208.405 0.722C207.938 1.198 207.705 1.79067 207.705 2.5C207.705 3.2 207.938 3.788 208.405 4.264C208.881 4.74 209.469 4.978 210.169 4.978C210.636 4.978 211.056 4.87067 211.429 4.656C211.802 4.432 212.087 4.13333 212.283 3.76L213.319 4.362C213.02 4.91267 212.591 5.356 212.031 5.692C211.471 6.01867 210.85 6.182 210.169 6.182ZM218.33 0.176H216.468V3.97C216.468 4.31533 216.533 4.56267 216.664 4.712C216.804 4.852 217.014 4.92667 217.294 4.936C217.574 4.936 217.919 4.92667 218.33 4.908V6C217.266 6.14 216.486 6.056 215.992 5.748C215.497 5.43067 215.25 4.838 215.25 3.97V0.176H213.864V-1H215.25V-2.596L216.468 -2.96V-1H218.33V0.176Z" fill="black"/>
</g>
</g>
</g>
</g>
</g>
</svg>
